<svg xmlns:dc="http://purl.org/dc/elements/1.1/" xmlns:cc="http://creativecommons.org/ns#" xmlns:rdf="http://www.w3.org/1999/02/22-rdf-syntax-ns#" xmlns:svg="http://www.w3.org/2000/svg" xmlns="http://www.w3.org/2000/svg" xmlns:sodipodi="http://sodipodi.sourceforge.net/DTD/sodipodi-0.dtd" xmlns:inkscape="http://www.inkscape.org/namespaces/inkscape" id="svg2" version="1.1" inkscape:version="0.48.4 r9939" sodipodi:docname="logo5.svg" viewBox="185.87 207.65 680.62 330.52">
  <defs id="defs4"/>
  <sodipodi:namedview id="base" pagecolor="#ffffff" bordercolor="#666666" borderopacity="1.0" inkscape:pageopacity="0.0" inkscape:pageshadow="2" inkscape:zoom="0.25000001" inkscape:cx="457.98322" inkscape:cy="437.76294" inkscape:document-units="px" inkscape:current-layer="g3734" showgrid="false" inkscape:snap-bbox="true" inkscape:bbox-paths="true" inkscape:bbox-nodes="true" inkscape:snap-bbox-edge-midpoints="true" inkscape:snap-bbox-midpoints="true" inkscape:object-paths="true" inkscape:object-nodes="true" inkscape:snap-intersection-paths="true" inkscape:snap-smooth-nodes="true" inkscape:snap-midpoints="true" inkscape:snap-object-midpoints="true" inkscape:snap-center="true" inkscape:snap-global="false" showguides="true" inkscape:guide-bbox="true" inkscape:window-width="1366" inkscape:window-height="715" inkscape:window-x="-8" inkscape:window-y="-8" inkscape:window-maximized="1"/>
  <metadata id="metadata7">
    <rdf:RDF>
      <cc:Work rdf:about="">
        <dc:format>image/svg+xml</dc:format>
        <dc:type rdf:resource="http://purl.org/dc/dcmitype/StillImage"/>
        <dc:title/>
      </cc:Work>
    </rdf:RDF>
  </metadata>
  <g inkscape:label="Layer 1" inkscape:groupmode="layer" id="layer1" transform="translate(0,-308.2677)">
    <g id="g3734" transform="translate(-88.702725,-113.48308)">
      <text xml:space="preserve" style="font-size:39.5005722px;font-style:normal;font-variant:normal;font-weight:300;font-stretch:normal;text-align:start;line-height:1000%;letter-spacing:0px;word-spacing:0px;writing-mode:lr-tb;text-anchor:start;fill:#696969;fill-opacity:1;stroke:none;font-family:Gotham Medium;-inkscape-font-specification:'Gotham Medium, Light'" x="490.7175" y="950.15387" id="text3862" sodipodi:linespacing="1000%" inkscape:export-filename="D:\WORK - Freelancer\ORDERS\Samskara\g56126.png" inkscape:export-xdpi="300" inkscape:export-ydpi="300"><tspan sodipodi:role="line" id="tspan3864" x="490.7175" y="950.15387" style="font-style:normal;font-variant:normal;font-weight:normal;font-stretch:normal;line-height:1000%;letter-spacing:0.94846362px;word-spacing:-9.12895966px;writing-mode:lr-tb;baseline-shift:baseline;fill:#696969;font-family:Cinzel Decorative;-inkscape-font-specification:Cinzel Decorative" rotate="0 0 0 0 0 0 0 0 0" dy="0" dx="0">C<tspan style="font-style:normal;font-variant:normal;font-weight:normal;font-stretch:normal;fill:#696969;font-family:Cinzel;-inkscape-font-specification:Cinzel" id="tspan3866">L</tspan>OTHING</tspan></text>
      <path sodipodi:type="arc" style="fill:#696969;fill-opacity:1;stroke:none" id="path3868" sodipodi:cx="251.55324" sodipodi:cy="590.09113" sodipodi:rx="1.5909903" sodipodi:ry="1.5909903" d="m 253.14423,590.09113 c 0,0.87868 -0.71231,1.59099 -1.59099,1.59099 -0.87868,0 -1.59099,-0.71231 -1.59099,-1.59099 0,-0.87868 0.71231,-1.59099 1.59099,-1.59099 0.87868,0 1.59099,0.71231 1.59099,1.59099 z" transform="matrix(6.03402,0,0,6.03402,-1062.2961,-2623.1674)" inkscape:export-filename="D:\WORK - Freelancer\ORDERS\Samskara\g56126.png" inkscape:export-xdpi="300" inkscape:export-ydpi="300"/>
      <path transform="matrix(6.03402,0,0,6.03402,-749.09399,-2623.1674)" d="m 253.14423,590.09113 c 0,0.87868 -0.71231,1.59099 -1.59099,1.59099 -0.87868,0 -1.59099,-0.71231 -1.59099,-1.59099 0,-0.87868 0.71231,-1.59099 1.59099,-1.59099 0.87868,0 1.59099,0.71231 1.59099,1.59099 z" sodipodi:ry="1.5909903" sodipodi:rx="1.5909903" sodipodi:cy="590.09113" sodipodi:cx="251.55324" id="path3870" style="fill:#696969;fill-opacity:1;stroke:none" sodipodi:type="arc" inkscape:export-filename="D:\WORK - Freelancer\ORDERS\Samskara\g56126.png" inkscape:export-xdpi="300" inkscape:export-ydpi="300"/>
      <path style="fill:#696969;fill-opacity:1;stroke:none" d="m 470.36159,738.16893 0,154.19689 c -4.41201,5.84345 -9.45127,7.71712 -16.0123,10.20986 l 0,-156.61713 c 4.7195,-4.70944 9.82394,-6.05333 16.0123,-7.78962 z" id="path3872" inkscape:connector-curvature="0" sodipodi:nodetypes="ccccc" inkscape:export-filename="D:\WORK - Freelancer\ORDERS\Samskara\g56126.png" inkscape:export-xdpi="300" inkscape:export-ydpi="300"/>
      <path style="fill:#696969;fill-opacity:1;stroke:none" d="m 510.6448,738.46696 16.0123,0 0,151.31792 c 0,13.09018 -4.12445,12.79409 -16.0123,12.79409 z" id="path3874" inkscape:connector-curvature="0" sodipodi:nodetypes="ccccc" inkscape:export-filename="D:\WORK - Freelancer\ORDERS\Samskara\g56126.png" inkscape:export-xdpi="300" inkscape:export-ydpi="300"/>
      <path style="fill:#696969;fill-opacity:1;stroke:none" d="m 554.42606,744.06824 16.01185,3.859 4.5e-4,154.64705 -16,0.0349 z" id="path3876" inkscape:connector-curvature="0" sodipodi:nodetypes="ccccc" inkscape:export-filename="D:\WORK - Freelancer\ORDERS\Samskara\g56126.png" inkscape:export-xdpi="300" inkscape:export-ydpi="300"/>
      <path style="fill:#696969;fill-opacity:1;stroke:none" d="m 587.88304,719.46537 16.0123,0 0,77.53367 -16.01185,-20.30801 z" id="path3878" inkscape:connector-curvature="0" sodipodi:nodetypes="ccccc" inkscape:export-filename="D:\WORK - Freelancer\ORDERS\Samskara\g56126.png" inkscape:export-xdpi="300" inkscape:export-ydpi="300"/>
      <path style="fill:#696969;fill-opacity:1;stroke:none" d="m 618.24231,817.61744 0,53.72717 c 0.45942,7.00925 -1.49976,20.65457 -14.6011,24.65982 -10.52114,3.21652 -34.82593,1.7934 -49.20325,1.7934 l 0,5.973 c 15.45073,0 38.75919,0.66288 50.67834,-2.53081 20.67146,-5.539 29.12774,-19.25946 29.12774,-30.34043 l 0,-35.37476 z" id="path3880" inkscape:connector-curvature="0" sodipodi:nodetypes="ccsccsccc" inkscape:export-filename="D:\WORK - Freelancer\ORDERS\Samskara\g56126.png" inkscape:export-xdpi="300" inkscape:export-ydpi="300"/>
      <path style="fill:#696969;fill-opacity:1;stroke:none" d="m 772.84615,774.66588 16.0123,7.96407 0,121.05014 -16.0123,-3.94511 z" id="path3882" inkscape:connector-curvature="0" sodipodi:nodetypes="ccccc" inkscape:export-filename="D:\WORK - Freelancer\ORDERS\Samskara\g56126.png" inkscape:export-xdpi="300" inkscape:export-ydpi="300"/>
      <path style="fill:#696969;fill-opacity:1;stroke:none" d="m 806.1243,758.24344 16.0123,-19.18192 0,155.3307 -16.0123,9.28787 z" id="path3884" inkscape:connector-curvature="0" sodipodi:nodetypes="ccccc" inkscape:export-filename="D:\WORK - Freelancer\ORDERS\Samskara\g56126.png" inkscape:export-xdpi="300" inkscape:export-ydpi="300"/>
      <path style="fill:#696969;fill-opacity:1;stroke:none" d="m 925.85462,748.65584 16.0123,8.11152 0.004,140.86419 -14.06553,6.04854 -1.94677,0 z" id="path3886" inkscape:connector-curvature="0" sodipodi:nodetypes="cccccc" inkscape:export-filename="D:\WORK - Freelancer\ORDERS\Samskara\g56126.png" inkscape:export-xdpi="300" inkscape:export-ydpi="300"/>
      <path style="fill:#696969;fill-opacity:1;stroke:none" d="m 689.12835,758.56987 -14.1056,19.30106 c 16.62191,85.93649 36.2803,106.00019 51.29896,120.73757 l -30.72486,0 c -4.30722,-0.0807 -6.48923,1.42565 -6.48923,5.06497 l 53.09339,0 c 3.87202,0 4.70317,0.01 6.26809,-0.66368 -16.1563,-15.66424 -43.53106,-43.58936 -59.34075,-144.43992 z" id="path3888" inkscape:connector-curvature="0" sodipodi:nodetypes="cccccccc" inkscape:export-filename="D:\WORK - Freelancer\ORDERS\Samskara\g56126.png" inkscape:export-xdpi="300" inkscape:export-ydpi="300"/>
      <path style="font-size:medium;font-style:normal;font-variant:normal;font-weight:normal;font-stretch:normal;text-indent:0;text-align:start;text-decoration:none;line-height:normal;letter-spacing:normal;word-spacing:normal;text-transform:none;direction:ltr;block-progression:tb;writing-mode:lr-tb;text-anchor:start;baseline-shift:baseline;color:#000000;fill:#696969;fill-opacity:1;stroke:none;stroke-width:2.5;marker:none;visibility:visible;display:inline;overflow:visible;enable-background:accumulate;font-family:Sans;-inkscape-font-specification:Sans" d="m 427.99907,806.48748 c -29.13353,-0.12956 -48.12067,15.99317 -48.21534,39.88328 -0.13205,33.33042 30.0866,56.19107 57.28207,56.19107 l -0.11012,-5.29887 c -21.85849,0 -51.45402,-22.17156 -51.45402,-50.63254 0,-23.23068 23.00146,-34.40712 42.57529,-34.40712 31.29351,0 52.56925,24.15127 52.56925,49.89143 0,17.98314 -12.07158,32.48019 -26.2987,33.31473 l 0,7.14622 c 22.8288,-6.59098 31.89818,-22.63562 31.89818,-40.45317 0,-32.78664 -24.74124,-55.17675 -58.24801,-55.63503 z" id="path3890" inkscape:connector-curvature="0" sodipodi:nodetypes="csccscccccc" inkscape:export-filename="D:\WORK - Freelancer\ORDERS\Samskara\g56126.png" inkscape:export-xdpi="300" inkscape:export-ydpi="300"/>
      <path style="font-size:medium;font-style:normal;font-variant:normal;font-weight:normal;font-stretch:normal;text-indent:0;text-align:start;text-decoration:none;line-height:normal;letter-spacing:normal;word-spacing:normal;text-transform:none;direction:ltr;block-progression:tb;writing-mode:lr-tb;text-anchor:start;baseline-shift:baseline;color:#000000;fill:#696969;fill-opacity:1;stroke:none;stroke-width:2.5;marker:none;visibility:visible;display:inline;overflow:visible;enable-background:accumulate;font-family:Sans;-inkscape-font-specification:Sans" d="m 490.8155,717.92425 c -20.46886,0 -36.46621,11.40606 -36.46621,28.0343 l 16.0123,0.20878 c 0,-14.02367 7.5613,-23.52342 20.63185,-23.52342 16.07,0 19.65136,11.61618 19.65136,26.65109 l 16.0123,-0.31293 c 0,-17.48948 -12.80097,-31.05767 -35.8416,-31.05767 z" id="path3892" inkscape:connector-curvature="0" sodipodi:nodetypes="sccsccs" inkscape:export-filename="D:\WORK - Freelancer\ORDERS\Samskara\g56126.png" inkscape:export-xdpi="300" inkscape:export-ydpi="300"/>
      <path style="font-size:medium;font-style:normal;font-variant:normal;font-weight:normal;font-stretch:normal;text-indent:0;text-align:start;text-decoration:none;line-height:normal;letter-spacing:normal;word-spacing:normal;text-transform:none;direction:ltr;block-progression:tb;writing-mode:lr-tb;text-anchor:start;baseline-shift:baseline;color:#000000;fill:#696969;fill-opacity:1;stroke:none;stroke-width:2.5;marker:none;visibility:visible;display:inline;overflow:visible;enable-background:accumulate;font-family:Sans;-inkscape-font-specification:Sans" d="m 587.88304,776.46984 c 0,17.7763 13.41098,24.39778 20.77276,30.60263 7.89033,6.65312 9.58651,6.04461 9.58651,28.46412 l 16.00173,0 c 0,-19.51592 -14.1624,-25.85387 -22.03598,-32.49309 -5.83338,-5.28661 -8.31272,-5.15745 -8.31272,-26.57366 z" id="path3894" inkscape:connector-curvature="0" sodipodi:nodetypes="ccccccc" inkscape:export-filename="D:\WORK - Freelancer\ORDERS\Samskara\g56126.png" inkscape:export-xdpi="300" inkscape:export-ydpi="300"/>
      <path style="font-size:medium;font-style:normal;font-variant:normal;font-weight:normal;font-stretch:normal;text-indent:0;text-align:start;text-decoration:none;line-height:normal;letter-spacing:normal;word-spacing:normal;text-transform:none;direction:ltr;block-progression:tb;writing-mode:lr-tb;text-anchor:start;baseline-shift:baseline;color:#000000;fill:#696969;fill-opacity:1;stroke:none;stroke-width:2.5;marker:none;visibility:visible;display:inline;overflow:visible;enable-background:accumulate;font-family:Sans;-inkscape-font-specification:Sans" d="m 587.86057,719.02538 0,5.89925 c 15.12833,0 30.06328,-0.52056 41.14779,4.79325 11.08451,5.31372 21.10577,22.35424 21.10577,48.00551 l 5.80956,-6.71047 c -1.9089,-26.67815 -11.31173,-40.36174 -24.33424,-46.60442 -13.02251,-6.24272 -28.79478,-5.38312 -43.72888,-5.38312 z" id="path3896" inkscape:connector-curvature="0" sodipodi:nodetypes="ccsccsc" inkscape:export-filename="D:\WORK - Freelancer\ORDERS\Samskara\g56126.png" inkscape:export-xdpi="300" inkscape:export-ydpi="300"/>
      <path style="font-size:medium;font-style:normal;font-variant:normal;font-weight:normal;font-stretch:normal;text-indent:0;text-align:start;text-decoration:none;line-height:normal;letter-spacing:normal;word-spacing:normal;text-transform:none;direction:ltr;block-progression:tb;writing-mode:lr-tb;text-anchor:start;baseline-shift:baseline;color:#000000;fill:#696969;fill-opacity:1;stroke:none;stroke-width:2.5;marker:none;visibility:visible;display:inline;overflow:visible;enable-background:accumulate;font-family:Sans;-inkscape-font-specification:Sans" d="m 733.2003,719.03355 c -55.41284,0 -72.4408,98.94654 -72.89933,126.53183 l 5.82546,6.34173 c 0,-30.59894 19.34302,-126.27371 67.03685,-126.27371 31.96122,0 39.68287,33.1744 39.68287,57.84185 l 16.0123,-0.81116 c 0,-31.8072 -20.95688,-63.63054 -55.65815,-63.63054 z" id="path3898" inkscape:connector-curvature="0" sodipodi:nodetypes="sccsccs" inkscape:export-filename="D:\WORK - Freelancer\ORDERS\Samskara\g56126.png" inkscape:export-xdpi="300" inkscape:export-ydpi="300"/>
      <path style="font-size:medium;font-style:normal;font-variant:normal;font-weight:normal;font-stretch:normal;text-indent:0;text-align:start;text-decoration:none;line-height:normal;letter-spacing:normal;word-spacing:normal;text-transform:none;direction:ltr;block-progression:tb;writing-mode:lr-tb;text-anchor:start;baseline-shift:baseline;color:#000000;fill:#696969;fill-opacity:1;stroke:none;stroke-width:2.5;marker:none;visibility:visible;display:inline;overflow:visible;enable-background:accumulate;font-family:Sans;-inkscape-font-specification:Sans" d="m 806.1243,758.25575 16.0123,0.14749 c -0.0448,-20.97985 0.9025,-33.93514 19.6681,-33.93514 31.08294,0 17.22709,40.68936 45.96153,40.57202 -3.09374,-25.19753 -21.75011,-46.23584 -46.77284,-46.23584 -25.22663,0 -34.50529,20.31569 -34.86909,39.45147 z" id="path3900" inkscape:connector-curvature="0" sodipodi:nodetypes="ccscsc" inkscape:export-filename="D:\WORK - Freelancer\ORDERS\Samskara\g56126.png" inkscape:export-xdpi="300" inkscape:export-ydpi="300"/>
      <path style="font-size:medium;font-style:normal;font-variant:normal;font-weight:normal;font-stretch:normal;text-indent:0;text-align:start;text-decoration:none;line-height:normal;letter-spacing:normal;word-spacing:normal;text-transform:none;direction:ltr;block-progression:tb;writing-mode:lr-tb;text-anchor:start;baseline-shift:baseline;color:#000000;fill:#696969;fill-opacity:1;stroke:none;stroke-width:2.5;marker:none;visibility:visible;display:inline;overflow:visible;enable-background:accumulate;font-family:Sans;-inkscape-font-specification:Sans" d="m 909.02547,721.00294 c -20.41245,0 -26.02474,20.19953 -26.15205,35.64936 l 0,120.02411 c 0,15.71647 -13.34341,21.05923 -20.78398,21.05923 -7.31161,0.1455 -13.96054,0.2033 -22.75561,0.2033 -4.24483,0 -8.62684,1.09011 -8.62684,5.85327 21.98181,0 9.10336,-0.13753 31.38245,-0.13753 12.83451,0 26.56499,-9.7624 26.56499,-26.97787 l 0,-120.02411 c 0.39215,-15.10462 4.95843,-29.8684 20.23341,-29.8684 14.439,0 16.93,16.34506 16.93,30.00603 l 16.10414,0.55061 c 0,-18.32666 -8.26095,-36.33755 -32.89651,-36.3376 z" id="path3902" inkscape:connector-curvature="0" sodipodi:nodetypes="scscccsscsccs" inkscape:export-filename="D:\WORK - Freelancer\ORDERS\Samskara\g56126.png" inkscape:export-xdpi="300" inkscape:export-ydpi="300"/>
      <path style="font-size:medium;font-style:normal;font-variant:normal;font-weight:normal;font-stretch:normal;text-indent:0;text-align:start;text-decoration:none;line-height:normal;letter-spacing:normal;word-spacing:normal;text-transform:none;direction:ltr;block-progression:tb;writing-mode:lr-tb;text-anchor:start;baseline-shift:baseline;color:#000000;fill:#696969;fill-opacity:1;stroke:none;stroke-width:2.1432848;marker:none;visibility:visible;display:inline;overflow:visible;enable-background:accumulate;font-family:Sans;-inkscape-font-specification:Sans" d="m 883.56121,817.99275 c -17.15488,-0.44248 -51.83985,7.57146 -51.15799,44.49206 1.24956,0.84804 5.2141,2.9154 5.45413,0.62964 0.85227,-38.76945 41.57283,-43.82774 65.29841,-37.30059 8.15676,1.85942 15.44236,4.73176 22.95388,9.36038 14.13599,8.71055 23.08558,25.19683 23.96606,39.00913 0.44049,6.90615 -1.05578,12.99834 -4.57191,17.32918 -3.51619,4.33089 -9.09365,7.1529 -17.69797,7.1529 l 0,5.01444 c 9.7473,0 17.07954,-3.42101 21.60611,-8.99642 4.52656,-5.57547 6.1774,-13.03363 5.67791,-20.86879 -0.99852,-15.67032 -10.60969,-33.30705 -26.32556,-42.99116 -12.35081,-7.61079 -28.04864,-12.38834 -45.20307,-12.83097 z" id="path3904" inkscape:connector-curvature="0" sodipodi:nodetypes="ccccsssccssssc" inkscape:export-filename="D:\WORK - Freelancer\ORDERS\Samskara\g56126.png" inkscape:export-xdpi="300" inkscape:export-ydpi="300"/>
      <path sodipodi:nodetypes="sccsccs" inkscape:connector-curvature="0" id="path3906" d="m 540.6015,717.92425 c -15.07198,0 -29.9567,9.63629 -29.9567,26.26452 l 16.0123,0.20879 c 0,-14.02368 4.26447,-21.75365 14.01705,-21.75365 9.99968,0 13.75101,11.02177 13.75101,27.9443 l 16.01235,-0.54677 c 0,-20.18613 -14.93894,-32.11704 -29.83601,-32.11704 z" style="font-size:medium;font-style:normal;font-variant:normal;font-weight:normal;font-stretch:normal;text-indent:0;text-align:start;text-decoration:none;line-height:normal;letter-spacing:normal;word-spacing:normal;text-transform:none;direction:ltr;block-progression:tb;writing-mode:lr-tb;text-anchor:start;baseline-shift:baseline;color:#000000;fill:#696969;fill-opacity:1;stroke:none;stroke-width:2.5;marker:none;visibility:visible;display:inline;overflow:visible;enable-background:accumulate;font-family:Sans;-inkscape-font-specification:Sans" inkscape:export-filename="D:\WORK - Freelancer\ORDERS\Samskara\g56126.png" inkscape:export-xdpi="300" inkscape:export-ydpi="300"/>
      <path style="fill:#696969;fill-opacity:1;stroke:none" d="m 672.35541,629.4262 c -4.6345,14.30262 -6.22898,28.78168 -6.22898,43.21201 l 0,219.66164 c 0,9.5132 -1.87501,11.38024 -16.0123,11.38024 l 0,-219.36256 c 0,-43.88081 10.99148,-49.42244 22.24128,-54.89133 z" id="path3908" inkscape:connector-curvature="0" sodipodi:nodetypes="cccccc" inkscape:export-filename="D:\WORK - Freelancer\ORDERS\Samskara\g56126.png" inkscape:export-xdpi="300" inkscape:export-ydpi="300"/>
      <path sodipodi:nodetypes="csccscccccc" inkscape:connector-curvature="0" id="path3910" d="m 779.77447,807.5886 c -29.13392,-0.12955 -48.12106,15.99317 -48.21529,39.88328 -0.13204,33.33042 30.16942,56.20821 57.36445,56.20821 l -0.19384,-5.316 c -21.85804,0 -51.45402,-22.17152 -51.45402,-50.63255 0,-23.23068 23.00146,-34.40712 42.57574,-34.40712 31.29351,0 52.56925,24.15132 52.56925,49.89143 0,17.98314 -12.07158,32.48019 -26.2987,33.31473 l 0,7.14627 c 22.8288,-6.59098 31.89823,-22.63562 31.89823,-40.45322 0,-32.78659 -24.74129,-55.17675 -58.24806,-55.63503 z" style="font-size:medium;font-style:normal;font-variant:normal;font-weight:normal;font-stretch:normal;text-indent:0;text-align:start;text-decoration:none;line-height:normal;letter-spacing:normal;word-spacing:normal;text-transform:none;direction:ltr;block-progression:tb;writing-mode:lr-tb;text-anchor:start;baseline-shift:baseline;color:#000000;fill:#696969;fill-opacity:1;stroke:none;stroke-width:2.5;marker:none;visibility:visible;display:inline;overflow:visible;enable-background:accumulate;font-family:Sans;-inkscape-font-specification:Sans" inkscape:export-filename="D:\WORK - Freelancer\ORDERS\Samskara\g56126.png" inkscape:export-xdpi="300" inkscape:export-ydpi="300"/>
      <path style="fill:#696969;fill-opacity:1;stroke:none" d="m 421.11559,773.53272 16.0128,7.96412 0,121.05014 -16.0128,-3.94511 z" id="path3912" inkscape:connector-curvature="0" sodipodi:nodetypes="ccccc" inkscape:export-filename="D:\WORK - Freelancer\ORDERS\Samskara\g56126.png" inkscape:export-xdpi="300" inkscape:export-ydpi="300"/>
      <path style="font-size:medium;font-style:normal;font-variant:normal;font-weight:normal;font-stretch:normal;text-indent:0;text-align:start;text-decoration:none;line-height:normal;letter-spacing:normal;word-spacing:normal;text-transform:none;direction:ltr;block-progression:tb;writing-mode:lr-tb;text-anchor:start;baseline-shift:baseline;color:#000000;fill:#696969;fill-opacity:1;stroke:none;stroke-width:2.5;marker:none;visibility:visible;display:inline;overflow:visible;enable-background:accumulate;font-family:Sans;-inkscape-font-specification:Sans" d="m 386.42534,717.90044 c -23.67899,0 -36.77291,16.63984 -38.38109,37.45068 -1.46248,18.9254 3.16728,34.91807 11.05661,48.18628 l 8.2293,5.66043 c -11.79392,-19.46331 -15.90207,-35.37934 -14.2629,-53.01103 1.74357,-18.75394 12.47668,-32.65977 33.32065,-32.65977 34.16391,0 34.72768,34.14766 34.72768,58.81511 l 16.0128,-0.81117 c 0,-31.80719 -12.42352,-63.63053 -50.70305,-63.63053 z" id="path3914" inkscape:connector-curvature="0" sodipodi:nodetypes="ssccssccs" inkscape:export-filename="D:\WORK - Freelancer\ORDERS\Samskara\g56126.png" inkscape:export-xdpi="300" inkscape:export-ydpi="300"/>
      <path style="fill:#696969;fill-opacity:1;stroke:none" d="m 333.84921,666.6685 c -34.35779,1.53558 -63.85546,39.0314 -38.67747,84.78768 15.98525,29.05016 44.32878,42.89834 61.25086,66.06832 -1.06425,3.28254 -2.71115,5.41861 -4.95515,7.01976 -5.42972,3.87436 -14.8167,4.08987 -25.32619,3.44105 -10.50948,-0.64878 -21.91001,-2.03452 -31.65771,0.13752 -4.87387,1.08623 -9.41588,3.2077 -12.9384,6.74451 -4.99052,6.01575 -7.00934,13.29747 -6.95209,20.65138 0,31.21453 27.15437,47.97337 53.06226,47.20625 33.00728,-1.47519 56.98395,-16.27829 56.98395,-45.83486 0,-24.31979 -10.27021,-40.69011 -23.53683,-54.64402 -0.42704,-2.26249 -0.97456,-4.67461 -1.51411,-7.29507 l -2.06461,-2.33967 -1.51406,3.02811 c 0.12009,0.58479 0.16942,1.08642 0.27506,1.65173 -24.914,-24.05306 -56.97313,-42.209 -55.60747,-85.20062 0.57687,-18.16023 6.80146,-39.00679 33.30944,-40.19152 13.14559,-0.58753 23.74681,3.38199 30.14366,13.21365 9.34812,14.36785 14.4812,16.3331 29.45546,17.61819 -1.7342,-4.43622 -9.84098,-14.85985 -13.90189,-18.44405 -8.91162,-9.04242 -21.09541,-18.72395 -45.83491,-17.61824 z m 25.8768,155.67347 c 6.42111,10.34236 10.4608,22.58769 10.4608,38.67752 -0.35927,20.2377 -10.74069,36.88811 -37.62358,36.88811 -16.87853,0 -40.40021,-16.26832 -40.40021,-42.11582 0,-8.35697 2.20224,-21.09002 9.97721,-22.98896 8.53715,-2.08509 13.60217,-0.24615 24.27634,0.41259 10.67412,0.65894 21.39418,0.0703 28.6296,-5.09278 2.03601,-1.45276 3.50343,-3.43994 4.67984,-5.78096 z" id="path3918" inkscape:connector-curvature="0" sodipodi:nodetypes="sscssccccscccccsssccscccsssscc"/>
    </g>
  </g>
</svg>